<svg width="42" height="40" viewBox="0 0 42 40" fill="none" xmlns="http://www.w3.org/2000/svg">
<g clip-path="url(#clip0_96_466)">
<path d="M7.26496 0H33.7607C37.7778 0 41.0256 3.24786 41.0256 7.26496V32.735C41.0256 36.7521 37.7778 40 33.7607 40H7.26496C3.24786 40 0 36.7521 0 32.735V7.26496C0 3.24786 3.24786 0 7.26496 0Z" fill="#00005B"/>
<path d="M16.4785 23.932H10.1196L8.82042 27.9662C8.78623 28.1201 8.64948 28.2226 8.49563 28.2055H5.28196C5.09392 28.2055 5.04264 28.103 5.09392 27.8979L10.5982 12.1201C10.6495 11.9491 10.7008 11.7953 10.7691 11.5902C10.8375 11.2312 10.8717 10.8551 10.8717 10.479C10.8546 10.3936 10.923 10.3081 11.0085 10.291H11.0597H15.4358C15.5555 10.291 15.6409 10.3423 15.658 10.4278L21.8973 27.8637C21.9486 28.0517 21.8973 28.1372 21.7264 28.1372H18.1538C18.0341 28.1543 17.9144 28.0688 17.8802 27.9491L16.4785 23.8466V23.932ZM11.111 20.5303H15.4529C15.3503 20.1714 15.2136 19.744 15.0597 19.2996C14.9059 18.838 14.752 18.3423 14.5982 17.8295C14.4273 17.2996 14.2734 16.7867 14.1025 16.2568C13.9315 15.7269 13.7777 15.2312 13.6409 14.7355C13.5042 14.2568 13.3845 13.8124 13.2649 13.4021H13.2307C13.0768 14.1372 12.8888 14.8722 12.6495 15.6073C12.3931 16.4278 12.1367 17.2825 11.8632 18.1372C11.6409 19.009 11.3674 19.8124 11.111 20.5303Z" fill="#9999FF"/>
<path d="M31.9656 22.3932H26.5468C26.6152 22.9232 26.7862 23.4531 27.0768 23.9146C27.3844 24.3762 27.8118 24.7351 28.3246 24.9403C29.0084 25.2309 29.7605 25.3847 30.5127 25.3676C31.1109 25.3505 31.7092 25.2992 32.2904 25.1796C32.8203 25.1112 33.3332 24.9744 33.8118 24.7864C33.8973 24.718 33.9486 24.7522 33.9486 24.9232V27.5385C33.9486 27.6069 33.9315 27.6753 33.9144 27.7437C33.8802 27.795 33.846 27.8291 33.7947 27.8633C33.2477 28.1026 32.6836 28.2736 32.0853 28.3762C31.2819 28.53 30.4785 28.5984 29.658 28.5813C28.3588 28.5813 27.2648 28.3762 26.3759 27.983C25.5383 27.624 24.8033 27.0599 24.2221 26.3591C23.675 25.6924 23.2819 24.9403 23.0426 24.1197C22.8033 23.3163 22.6836 22.4787 22.6836 21.624C22.6836 20.7009 22.8203 19.795 23.1109 18.9061C23.3844 18.0514 23.8118 17.265 24.393 16.5642C24.9571 15.8804 25.658 15.3334 26.4614 14.9403C27.2648 14.5471 28.2221 14.4103 29.3161 14.4103C30.2221 14.3932 31.128 14.5642 31.9656 14.9403C32.6665 15.248 33.2819 15.7095 33.7605 16.3078C34.205 16.889 34.5639 17.5385 34.7862 18.2565C35.0084 18.9403 35.1109 19.6411 35.1109 20.342C35.1109 20.7522 35.0939 21.1112 35.0768 21.436C35.0426 21.7608 35.0255 22.0001 35.0084 22.1539C34.9913 22.2736 34.8887 22.3762 34.7691 22.3762C34.6665 22.3762 34.4785 22.3932 34.205 22.4103C33.9315 22.4445 33.6067 22.4616 33.2135 22.4616C32.8203 22.4616 32.4101 22.3932 31.9656 22.3932ZM26.5468 19.8975H30.1537C30.5981 19.8975 30.9229 19.8975 31.128 19.8804C31.2648 19.8633 31.4015 19.8291 31.5212 19.7437V19.5727C31.5212 19.3505 31.487 19.1454 31.4186 18.9403C31.1109 17.983 30.205 17.3334 29.1964 17.3676C28.2562 17.3163 27.3674 17.8121 26.9229 18.6668C26.7178 19.0599 26.5981 19.4702 26.5468 19.8975Z" fill="#9999FF"/>
</g>
<defs>
<clipPath id="clip0_96_466">
<rect width="41.0256" height="40" fill="white"/>
</clipPath>
</defs>
</svg>
