<svg width="27" height="40" viewBox="0 0 27 40" fill="none" xmlns="http://www.w3.org/2000/svg">
<g clip-path="url(#clip0_94_303)">
<path d="M6.66935 39.9998C10.3494 39.9998 13.336 37.0132 13.336 33.3332V26.6665H6.66935C2.98935 26.6665 0.00268555 29.6532 0.00268555 33.3332C0.00268555 37.0132 2.98935 39.9998 6.66935 39.9998Z" fill="#0ACF83"/>
<path d="M0.00268555 20.0002C0.00268555 16.3202 2.98935 13.3335 6.66935 13.3335H13.336V26.6668H6.66935C2.98935 26.6668 0.00268555 23.6802 0.00268555 20.0002Z" fill="#A259FF"/>
<path d="M0.00268555 6.66667C0.00268555 2.98667 2.98935 0 6.66935 0H13.336V13.3333H6.66935C2.98935 13.3333 0.00268555 10.3467 0.00268555 6.66667Z" fill="#F24E1E"/>
<path d="M13.3359 0H20.0026C23.6826 0 26.6693 2.98667 26.6693 6.66667C26.6693 10.3467 23.6826 13.3333 20.0026 13.3333H13.3359V0Z" fill="#FF7262"/>
<path d="M26.6693 20.0002C26.6693 23.6802 23.6826 26.6668 20.0026 26.6668C16.3226 26.6668 13.3359 23.6802 13.3359 20.0002C13.3359 16.3202 16.3226 13.3335 20.0026 13.3335C23.6826 13.3335 26.6693 16.3202 26.6693 20.0002Z" fill="#1ABCFE"/>
</g>
<defs>
<clipPath id="clip0_94_303">
<rect width="26.672" height="40" fill="white"/>
</clipPath>
</defs>
</svg>
