<svg width="86" height="18" viewBox="0 0 86 18" fill="none" xmlns="http://www.w3.org/2000/svg">
<g clip-path="url(#clip0_137_2)">
<rect x="15.6001" y="12.3203" width="2.34667" height="2.34667" rx="0.586667" fill="#F9F9F9"/>
<path fill-rule="evenodd" clip-rule="evenodd" d="M2.6936 8.19428V13.4926C2.6936 14.1406 3.21892 14.666 3.86694 14.666H13.2536C13.9016 14.666 14.4269 14.1406 14.4269 13.4926V4.10595C14.4269 3.45794 13.9016 2.93262 13.2536 2.93262H8.56027C7.91226 2.93262 7.38694 3.45794 7.38694 4.10595V11.7326C7.38694 12.0566 7.12428 12.3193 6.80027 12.3193H5.62694C5.30293 12.3193 5.04027 12.0566 5.04027 11.7326V8.19428C5.04027 7.87028 4.77761 7.60762 4.4536 7.60762H3.28027C2.95626 7.60762 2.6936 7.87028 2.6936 8.19428ZM11.4936 5.2793H10.3203C9.9963 5.2793 9.73364 5.54196 9.73364 5.86596V11.7326C9.73364 12.0566 9.9963 12.3193 10.3203 12.3193H11.4936C11.8176 12.3193 12.0803 12.0566 12.0803 11.7326V5.86596C12.0803 5.54196 11.8176 5.2793 11.4936 5.2793Z" fill="#F9F9F9"/>
</g>
<path d="M21.812 13.3711V4.86035C21.812 4.6735 21.8758 4.51628 22.0034 4.38867C22.131 4.26107 22.2837 4.19727 22.4614 4.19727H26.2827C28.2606 4.19727 29.6984 4.59375 30.5962 5.38672C31.4985 6.17513 31.9497 7.41471 31.9497 9.10547C31.9497 10.7917 31.4985 12.029 30.5962 12.8174C29.6984 13.6058 28.2606 14 26.2827 14H22.4614C22.2837 14 22.131 13.9408 22.0034 13.8223C21.8758 13.6992 21.812 13.5488 21.812 13.3711ZM24.3892 12.0654H26.2075C27.4334 12.0654 28.2674 11.8421 28.7095 11.3955C29.1515 10.9489 29.3726 10.1855 29.3726 9.10547C29.3726 8.02083 29.1515 7.25521 28.7095 6.80859C28.2674 6.35742 27.4334 6.13184 26.2075 6.13184H24.3892V12.0654ZM33.3511 13.3438V4.83301C33.3511 4.65527 33.4149 4.50488 33.5425 4.38184C33.6701 4.25879 33.8228 4.19727 34.0005 4.19727H41.8823C42.0601 4.19727 42.2104 4.26107 42.3335 4.38867C42.4611 4.51628 42.5249 4.66895 42.5249 4.84668V5.48926C42.5249 5.66699 42.4611 5.81966 42.3335 5.94727C42.2104 6.07031 42.0601 6.13184 41.8823 6.13184H35.9282V8.12109H41.0552C41.2329 8.12109 41.3833 8.1849 41.5063 8.3125C41.634 8.43555 41.6978 8.58594 41.6978 8.76367V9.40625C41.6978 9.58398 41.634 9.73665 41.5063 9.86426C41.3833 9.9873 41.2329 10.0488 41.0552 10.0488H35.9282V12.0654H41.8687C42.0418 12.0654 42.1899 12.127 42.313 12.25C42.436 12.373 42.4976 12.5234 42.4976 12.7012V13.3574C42.4976 13.5352 42.4338 13.6878 42.3062 13.8154C42.1785 13.9385 42.0259 14 41.8481 14H34.0005C33.8228 14 33.6701 13.9385 33.5425 13.8154C33.4149 13.6878 33.3511 13.5306 33.3511 13.3438ZM43.2222 11.4912C43.2222 11.2223 43.3019 11.0309 43.4614 10.917C43.6209 10.7985 43.7759 10.7393 43.9263 10.7393H44.7397C45.1499 10.7393 45.4621 10.9626 45.6763 11.4092C45.8905 11.8558 46.3713 12.0791 47.1187 12.0791L49.5112 12.127C50.3133 12.127 50.7144 11.8649 50.7144 11.3408C50.7144 10.9443 50.2244 10.6322 49.2446 10.4043C48.8071 10.2995 48.3241 10.1969 47.7954 10.0967C47.2668 9.99186 46.7404 9.86198 46.2163 9.70703C45.6968 9.55208 45.2183 9.36979 44.7808 9.16016C44.3433 8.95052 43.9878 8.66341 43.7144 8.29883C43.4455 7.92969 43.311 7.49674 43.311 7C43.311 6.08398 43.6369 5.37988 44.2886 4.8877C44.9403 4.39095 46.0614 4.14258 47.6519 4.14258L49.3882 4.18359C50.3224 4.18359 51.1632 4.42513 51.9106 4.9082C52.6626 5.38672 53.0386 5.986 53.0386 6.70605C53.0386 6.97493 52.9588 7.16862 52.7993 7.28711C52.6398 7.4056 52.4871 7.46484 52.3413 7.46484H51.5278C51.1177 7.46484 50.8055 7.24154 50.5913 6.79492C50.3771 6.34375 49.8963 6.11816 49.1489 6.11816L47.0913 6.07715C46.2892 6.07715 45.8882 6.33919 45.8882 6.86328C45.8882 7.15039 46.1411 7.38509 46.647 7.56738C47.1574 7.74967 47.7726 7.91146 48.4927 8.05273C49.2173 8.18945 49.9442 8.35579 50.6733 8.55176C51.4025 8.74772 52.02 9.07129 52.5259 9.52246C53.0363 9.96908 53.2915 10.5273 53.2915 11.1973C53.2915 12.1133 52.9634 12.8197 52.3071 13.3164C51.6554 13.8086 50.5366 14.0547 48.9507 14.0547L46.8794 14.0137C45.9451 14.0137 45.1021 13.7744 44.3501 13.2959C43.5981 12.8128 43.2222 12.2113 43.2222 11.4912ZM54.6929 13.3711V4.84668C54.6929 4.66895 54.7567 4.51628 54.8843 4.38867C55.0119 4.26107 55.1646 4.19727 55.3423 4.19727H56.6138C56.8006 4.19727 56.9556 4.26107 57.0786 4.38867C57.2062 4.51628 57.27 4.66895 57.27 4.84668V13.3574C57.27 13.5352 57.2039 13.6878 57.0718 13.8154C56.9442 13.9385 56.7915 14 56.6138 14H55.3423C55.1646 14 55.0119 13.9408 54.8843 13.8223C54.7567 13.6992 54.6929 13.5488 54.6929 13.3711ZM63.3677 14.0547C61.8547 14.0547 60.6925 13.6468 59.8813 12.8311C59.0747 12.0153 58.6714 10.7689 58.6714 9.0918C58.6714 7.41016 59.0929 6.16602 59.936 5.35938C60.7837 4.54818 62.0529 4.14258 63.7437 4.14258H65.2681C66.2752 4.14258 67.1821 4.38411 67.9888 4.86719C68.8 5.3457 69.2056 5.94499 69.2056 6.66504C69.2056 6.93392 69.1258 7.1276 68.9663 7.24609C68.8068 7.36003 68.6519 7.41699 68.5015 7.41699H67.688C67.2961 7.41699 66.9839 7.19368 66.7515 6.74707C66.519 6.30046 65.9448 6.07715 65.0288 6.07715H63.812C62.814 6.07715 62.1372 6.29134 61.7817 6.71973C61.4263 7.14811 61.2485 7.93652 61.2485 9.08496C61.2485 10.2334 61.408 11.0286 61.7271 11.4707C62.0461 11.9082 62.6157 12.127 63.436 12.127H64.8374C65.5711 12.127 66.0952 11.988 66.4097 11.71C66.7241 11.4274 66.8859 11.0241 66.895 10.5H65.3501C65.1724 10.5 65.0197 10.4385 64.8921 10.3154C64.769 10.1878 64.7075 10.0352 64.7075 9.85742V9.32422C64.7075 9.14648 64.769 8.99609 64.8921 8.87305C65.0197 8.74544 65.1724 8.68164 65.3501 8.68164H68.7817C68.9595 8.68164 69.1099 8.74544 69.2329 8.87305C69.3605 8.99609 69.4243 9.14648 69.4243 9.32422V10.083C69.4243 11.359 69.0415 12.3411 68.2759 13.0293C67.5103 13.7129 66.3869 14.0547 64.9058 14.0547H63.3677ZM70.8257 13.3574V4.84668C70.8257 4.66895 70.8872 4.51628 71.0103 4.38867C71.1333 4.26107 71.2837 4.19727 71.4614 4.19727H73.4712C73.6307 4.19727 73.7993 4.26107 73.9771 4.38867C74.1548 4.51628 74.3006 4.66895 74.4146 4.84668L78.5435 11.1973V4.83301C78.5435 4.65527 78.605 4.50488 78.728 4.38184C78.8556 4.25879 79.0083 4.19727 79.186 4.19727H80.3618C80.5396 4.19727 80.6899 4.25879 80.813 4.38184C80.9406 4.50488 81.0044 4.65983 81.0044 4.84668V13.3574C81.0044 13.5352 80.9406 13.6878 80.813 13.8154C80.6899 13.9385 80.5396 14 80.3618 14H78.0923C77.9146 14 77.7323 13.9385 77.5454 13.8154C77.3586 13.6878 77.2104 13.5352 77.1011 13.3574L73.3208 7.49219V13.3574C73.3208 13.5352 73.257 13.6878 73.1294 13.8154C73.0063 13.9385 72.856 14 72.6782 14H71.4751C71.2974 14 71.1447 13.9385 71.0171 13.8154C70.8895 13.6878 70.8257 13.5352 70.8257 13.3574ZM84.313 11.7852C84.9282 11.7852 85.2358 12.0951 85.2358 12.7148V13.1455C85.2358 13.4326 85.1561 13.6582 84.9966 13.8223C84.8416 13.9863 84.6138 14.0684 84.313 14.0684H83.4722C83.1714 14.0684 82.9412 13.9863 82.7817 13.8223C82.6268 13.6582 82.5493 13.4326 82.5493 13.1455V12.7148C82.5493 12.4141 82.6291 12.1839 82.7886 12.0244C82.9481 11.8649 83.1759 11.7852 83.4722 11.7852H84.313Z" fill="#F9F9F9"/>
<defs>
<clipPath id="clip0_137_2">
<rect width="18" height="18" fill="white" transform="translate(0.834473)"/>
</clipPath>
</defs>
</svg>
