<svg width="65" height="17" viewBox="0 0 65 17" fill="none" xmlns="http://www.w3.org/2000/svg">
<g clip-path="url(#clip0_96_655)">
<path d="M2.88745 14.875L1.6062 0.5H15.7L14.4187 14.875L8.63745 16.5" fill="#E34F26"/>
<path d="M8.6687 15.25L13.325 13.9688L14.4187 1.65625H8.6687" fill="#EF652A"/>
<path d="M8.6687 7H6.32495L6.1687 5.1875H8.6687V3.4375H8.63745H4.2312L4.26245 3.90625L4.69995 8.78125H8.6687V7ZM8.6687 11.5938H8.63745L6.6687 11.0625L6.5437 9.65625H5.6062H4.7937L5.01245 12.4375L8.63745 13.4375H8.6687V11.5938Z" fill="#EBEBEB"/>
<path d="M8.63745 7V8.78125H10.825L10.6062 11.0625L8.63745 11.5938V13.4375L12.2625 12.4375L12.2937 12.125L12.7 7.46875L12.7625 7H12.2625H8.63745ZM8.63745 3.4375V4.53125V5.1875H12.9187L12.95 4.8125L13.0437 3.90625L13.075 3.4375H8.63745Z" fill="#898989"/>
</g>
<g clip-path="url(#clip1_96_655)">
<path d="M26.8987 14.9006L25.6147 0.5H39.7227L38.4375 14.8983L32.6601 16.5L26.8987 14.9006Z" fill="#264DE4"/>
<path d="M37.3371 13.9818L38.4355 1.67773H32.6687V15.276L37.3371 13.9818Z" fill="#2965F1"/>
<path d="M28.5581 7.01814L28.7164 8.7843H32.6687V7.01814H28.5581ZM28.4006 5.20955H32.6687V3.44336H28.24L28.4006 5.20955ZM32.6687 11.6051L32.661 11.6071L30.694 11.076L30.5682 9.66739H28.7952L29.0427 12.4405L32.6606 13.4449L32.6687 13.4426V11.6051Z" fill="#EBEBEB"/>
<path d="M32.6628 7.01814V8.7843H34.8377L34.6327 11.0749L32.6628 11.6065V13.444L36.2836 12.4405L36.3102 12.1421L36.7252 7.49239L36.7683 7.01814L37.0871 3.44336H32.6628V5.20955H35.1516L34.9908 7.01814H32.6628Z" fill="#898989"/>
</g>
<path d="M51.3354 1.86175C52.6336 1.80706 53.9344 1.87738 55.2339 1.85524C56.6675 1.80967 58.0998 1.84743 59.5347 1.85264C60.6727 1.85524 61.8107 1.84743 62.9487 1.85654C62.5907 5.80576 62.23 9.75498 61.898 13.7068C60.3732 14.1404 58.8472 14.5675 57.3224 14.9985C57.1271 15.0792 56.9266 15.0037 56.7391 14.9529C55.2899 14.5362 53.8407 14.1235 52.3888 13.7224C52.0112 9.7719 51.6558 5.81748 51.3354 1.86175ZM57.1662 2.8917C57.1128 4.83961 57.1584 6.78753 57.1427 8.73545C57.1571 10.5167 57.1167 12.2992 57.1636 14.0805C58.4448 13.7784 59.7091 13.4073 60.9735 13.0414C61.2912 9.65993 61.6011 6.27842 61.8667 2.893C60.3003 2.87737 58.7326 2.8956 57.1662 2.8917ZM55.536 10.4985C54.7834 10.2927 54.0399 10.0558 53.2769 9.893C53.2547 10.3461 53.2625 10.7992 53.3146 11.2498C54.4318 11.5219 55.5256 11.88 56.644 12.1469C56.6519 9.56748 56.6401 6.98675 56.6493 4.40732C56.2847 4.39821 55.9201 4.393 55.5555 4.38519C55.5138 6.42165 55.5529 8.46071 55.536 10.4985Z" fill="#D6BA32"/>
<path d="M57.1662 2.89186C58.7326 2.89576 60.3003 2.87753 61.8667 2.89316C61.6011 6.27857 61.2912 9.66008 60.9735 13.0416C59.7092 13.4075 58.4449 13.7786 57.1636 14.0807C57.1167 12.2994 57.1571 10.5169 57.1428 8.73561C57.1584 6.78769 57.1128 4.83977 57.1662 2.89186ZM57.605 4.40618C57.6102 6.08326 57.6115 7.76165 57.605 9.43873C58.3706 9.31503 59.1337 9.17311 59.8967 9.03378C59.885 9.42441 59.8693 9.81503 59.8524 10.2057C59.1089 10.4036 58.3667 10.608 57.6193 10.7916C57.6076 11.2421 57.6063 11.6926 57.6102 12.1445C58.5516 11.9335 59.4787 11.6679 60.4136 11.4322C60.5308 11.3775 60.7561 11.384 60.7456 11.2004C60.8589 9.99472 60.9292 8.78378 61.0386 7.57545C60.2639 7.63925 59.4969 7.76946 58.7222 7.82285C58.7157 7.13795 58.7144 6.45305 58.7248 5.76816C59.5399 5.76816 60.3537 5.76816 61.1688 5.76946C61.2209 5.31243 61.2665 4.8541 61.3016 4.39576C60.0699 4.40097 58.8368 4.38404 57.605 4.40618Z" fill="#FFDA3E"/>
<path d="M55.5359 10.498C55.5528 8.46029 55.5137 6.42122 55.5554 4.38477C55.92 4.39258 56.2846 4.39779 56.6492 4.4069C56.64 6.98633 56.6518 9.56706 56.644 12.1465C55.5255 11.8796 54.4317 11.5215 53.3145 11.2494C53.2624 10.7988 53.2546 10.3457 53.2768 9.89258C54.0398 10.0553 54.7833 10.2923 55.5359 10.498Z" fill="#EBEBEB"/>
<defs>
<clipPath id="clip0_96_655">
<rect width="16" height="16" fill="white" transform="translate(0.668701 0.5)"/>
</clipPath>
<clipPath id="clip1_96_655">
<rect width="16" height="16" fill="white" transform="translate(24.6687 0.5)"/>
</clipPath>
</defs>
</svg>
